<svg width="62" height="62" viewBox="0 0 62 62" fill="none" xmlns="http://www.w3.org/2000/svg">
<circle cx="31" cy="31" r="28" stroke="black" stroke-width="6"/>
<path d="M7.46875 36V28.7273H10.608C11.1477 28.7273 11.62 28.8255 12.0249 29.022C12.4297 29.2185 12.7446 29.5014 12.9695 29.8707C13.1944 30.2401 13.3068 30.6828 13.3068 31.1989C13.3068 31.7197 13.1908 32.1589 12.9588 32.5163C12.7292 32.8738 12.406 33.1437 11.9893 33.326C11.575 33.5083 11.0909 33.5994 10.5369 33.5994H8.66193V32.0653H10.1392C10.3712 32.0653 10.5689 32.0369 10.7322 31.9801C10.898 31.9209 11.0246 31.8274 11.1122 31.6996C11.2022 31.5717 11.2472 31.4048 11.2472 31.1989C11.2472 30.9905 11.2022 30.8213 11.1122 30.6911C11.0246 30.5585 10.898 30.4614 10.7322 30.3999C10.5689 30.3359 10.3712 30.304 10.1392 30.304H9.44318V36H7.46875ZM11.7301 32.6619L13.5483 36H11.4034L9.62784 32.6619H11.7301ZM16.0376 36H13.907L16.3075 28.7273H19.0064L21.407 36H19.2763L17.6854 30.7301H17.6286L16.0376 36ZM15.6399 33.1307H19.6456V34.608H15.6399V33.1307ZM26.4886 31.1278C26.4579 31.0024 26.4093 30.8923 26.343 30.7976C26.2768 30.7005 26.1939 30.6188 26.0945 30.5526C25.9974 30.4839 25.8838 30.433 25.7536 30.3999C25.6257 30.3643 25.4848 30.3466 25.331 30.3466C24.9995 30.3466 24.7166 30.4259 24.4822 30.5845C24.2502 30.7431 24.0727 30.9716 23.9496 31.2699C23.8288 31.5682 23.7685 31.928 23.7685 32.3494C23.7685 32.7756 23.8265 33.1402 23.9425 33.4432C24.0585 33.7462 24.2313 33.9782 24.4609 34.1392C24.6906 34.3002 24.9759 34.3807 25.3168 34.3807C25.6174 34.3807 25.8672 34.3369 26.0661 34.2493C26.2673 34.1617 26.4176 34.0374 26.517 33.8764C26.6165 33.7154 26.6662 33.526 26.6662 33.3082L27.0071 33.3438H25.3452V31.9375H28.5696V32.946C28.5696 33.6089 28.4287 34.1759 28.147 34.647C27.8677 35.1158 27.4818 35.4756 26.9893 35.7266C26.4993 35.9751 25.937 36.0994 25.3026 36.0994C24.5947 36.0994 23.9732 35.9491 23.4382 35.6484C22.9032 35.3478 22.4853 34.9193 22.1847 34.3629C21.8864 33.8066 21.7372 33.1449 21.7372 32.3778C21.7372 31.7765 21.8284 31.2438 22.0107 30.7798C22.1953 30.3158 22.451 29.924 22.7777 29.6044C23.1044 29.2824 23.482 29.0398 23.9105 28.8764C24.339 28.7107 24.7983 28.6278 25.2884 28.6278C25.7192 28.6278 26.1193 28.6894 26.4886 28.8125C26.8603 28.9332 27.1882 29.1061 27.4723 29.331C27.7588 29.5535 27.9896 29.8175 28.1648 30.1229C28.34 30.4283 28.4465 30.7633 28.4844 31.1278H26.4886ZM34.2132 31.1278C34.1825 31.0024 34.1339 30.8923 34.0676 30.7976C34.0014 30.7005 33.9185 30.6188 33.8191 30.5526C33.722 30.4839 33.6084 30.433 33.4782 30.3999C33.3503 30.3643 33.2095 30.3466 33.0556 30.3466C32.7241 30.3466 32.4412 30.4259 32.2069 30.5845C31.9748 30.7431 31.7973 30.9716 31.6742 31.2699C31.5534 31.5682 31.4931 31.928 31.4931 32.3494C31.4931 32.7756 31.5511 33.1402 31.6671 33.4432C31.7831 33.7462 31.9559 33.9782 32.1855 34.1392C32.4152 34.3002 32.7005 34.3807 33.0414 34.3807C33.342 34.3807 33.5918 34.3369 33.7907 34.2493C33.9919 34.1617 34.1422 34.0374 34.2417 33.8764C34.3411 33.7154 34.3908 33.526 34.3908 33.3082L34.7317 33.3438H33.0698V31.9375H36.2942V32.946C36.2942 33.6089 36.1534 34.1759 35.8716 34.647C35.5923 35.1158 35.2064 35.4756 34.714 35.7266C34.2239 35.9751 33.6616 36.0994 33.0272 36.0994C32.3193 36.0994 31.6979 35.9491 31.1628 35.6484C30.6278 35.3478 30.2099 34.9193 29.9093 34.3629C29.611 33.8066 29.4618 33.1449 29.4618 32.3778C29.4618 31.7765 29.553 31.2438 29.7353 30.7798C29.9199 30.3158 30.1756 29.924 30.5023 29.6044C30.829 29.2824 31.2066 29.0398 31.6351 28.8764C32.0636 28.7107 32.5229 28.6278 33.013 28.6278C33.4438 28.6278 33.8439 28.6894 34.2132 28.8125C34.5849 28.9332 34.9128 29.1061 35.1969 29.331C35.4834 29.5535 35.7142 29.8175 35.8894 30.1229C36.0646 30.4283 36.1711 30.7633 36.209 31.1278H34.2132ZM39.1893 28.7273V36H37.2148V28.7273H39.1893ZM46.4176 28.7273V36H44.7699L42.142 32.179H42.0994V36H40.125V28.7273H41.8011L44.3864 32.5341H44.4432V28.7273H46.4176ZM52.0746 31.1278C52.0438 31.0024 51.9953 30.8923 51.929 30.7976C51.8627 30.7005 51.7798 30.6188 51.6804 30.5526C51.5833 30.4839 51.4697 30.433 51.3395 30.3999C51.2116 30.3643 51.0708 30.3466 50.9169 30.3466C50.5855 30.3466 50.3026 30.4259 50.0682 30.5845C49.8362 30.7431 49.6586 30.9716 49.5355 31.2699C49.4148 31.5682 49.3544 31.928 49.3544 32.3494C49.3544 32.7756 49.4124 33.1402 49.5284 33.4432C49.6444 33.7462 49.8172 33.9782 50.0469 34.1392C50.2765 34.3002 50.5618 34.3807 50.9027 34.3807C51.2034 34.3807 51.4531 34.3369 51.652 34.2493C51.8532 34.1617 52.0036 34.0374 52.103 33.8764C52.2024 33.7154 52.2521 33.526 52.2521 33.3082L52.593 33.3438H50.9311V31.9375H54.1555V32.946C54.1555 33.6089 54.0147 34.1759 53.733 34.647C53.4536 35.1158 53.0677 35.4756 52.5753 35.7266C52.0852 35.9751 51.523 36.0994 50.8885 36.0994C50.1806 36.0994 49.5592 35.9491 49.0241 35.6484C48.4891 35.3478 48.0713 34.9193 47.7706 34.3629C47.4723 33.8066 47.3232 33.1449 47.3232 32.3778C47.3232 31.7765 47.4143 31.2438 47.5966 30.7798C47.7813 30.3158 48.0369 29.924 48.3636 29.6044C48.6903 29.2824 49.0679 29.0398 49.4964 28.8764C49.925 28.7107 50.3842 28.6278 50.8743 28.6278C51.3052 28.6278 51.7053 28.6894 52.0746 28.8125C52.4463 28.9332 52.7741 29.1061 53.0582 29.331C53.3447 29.5535 53.5755 29.8175 53.7507 30.1229C53.9259 30.4283 54.0324 30.7633 54.0703 31.1278H52.0746Z" fill="black"/>
<rect x="10.4492" y="14.083" width="5" height="52" transform="rotate(-42.1791 10.4492 14.083)" fill="black"/>
</svg>
