<svg fill="#ffffff" width="64px" height="64px" viewBox="0 0 20.48 20.48" id="Flat" xmlns="http://www.w3.org/2000/svg"><path d="m15.761 10.619 -4.173 -1.537a0.32 0.32 0 0 1 -0.19 -0.19l-1.537 -4.173a0.96 0.96 0 0 0 -1.802 0l-1.537 4.173a0.32 0.32 0 0 1 -0.19 0.19l-4.173 1.537a0.96 0.96 0 0 0 0 1.802l4.173 1.537a0.32 0.32 0 0 1 0.19 0.19l1.537 4.173a0.96 0.96 0 0 0 1.802 0l1.537 -4.173a0.32 0.32 0 0 1 0.19 -0.19l4.173 -1.537a0.96 0.96 0 0 0 0 -1.802m-0.221 1.201 -4.173 1.537a0.958 0.958 0 0 0 -0.569 0.569l-1.537 4.173a0.32 0.32 0 0 1 -0.601 0l-1.537 -4.173a0.958 0.958 0 0 0 -0.569 -0.569l-4.173 -1.537a0.32 0.32 0 0 1 0 -0.601l4.173 -1.537a0.958 0.958 0 0 0 0.569 -0.569l1.537 -4.173a0.32 0.32 0 0 1 0.601 0l1.537 4.173a0.958 0.958 0 0 0 0.569 0.569l4.173 1.537a0.32 0.32 0 0 1 0 0.601M11.84 3.2a0.32 0.32 0 0 1 0.32 -0.32h1.6V1.28a0.32 0.32 0 0 1 0.64 0v1.6h1.6a0.32 0.32 0 0 1 0 0.64h-1.6v1.6a0.32 0.32 0 0 1 -0.64 0V3.52h-1.6a0.32 0.32 0 0 1 -0.32 -0.32m7.68 3.84a0.32 0.32 0 0 1 -0.32 0.32h-0.96v0.96a0.32 0.32 0 0 1 -0.64 0V7.36h-0.96a0.32 0.32 0 0 1 0 -0.64h0.96V5.76a0.32 0.32 0 0 1 0.64 0v0.96h0.96a0.32 0.32 0 0 1 0.32 0.32"/></svg>